<?xml version="1.0" encoding="utf-8"?>
<!-- Generator: Adobe Illustrator 23.0.1, SVG Export Plug-In . SVG Version: 6.00 Build 0)  -->
<svg version="1.1" id="Camada_1" xmlns="http://www.w3.org/2000/svg" xmlns:xlink="http://www.w3.org/1999/xlink" x="0px" y="0px"
	 viewBox="0 0 231 134" style="enable-background:new 0 0 231 134;" xml:space="preserve">
<style type="text/css">
	.st0{fill:#999591;}
	.st1{fill:#FF9000;}
	.st2{fill:#F4EDE8;stroke:#211915;stroke-miterlimit:10;}
</style>
<path class="st0" d="M55,124.8v-0.9h3.6v0.9l-1.1,0.2v3.4h4.8V125l-1.1-0.2v-0.9h3.6v0.9l-1.1,0.2v7.8l1.1,0.2v0.9h-3.6V133l1.1-0.2
	v-3.3h-4.8v3.3l1.1,0.2v0.9H55V133l1.1-0.2V125L55,124.8z"/>
<path class="st0" d="M70.8,133.9c0-0.2-0.1-0.4-0.1-0.5c0-0.2,0-0.3,0-0.5c-0.3,0.3-0.6,0.6-1,0.8c-0.4,0.2-0.8,0.3-1.2,0.3
	c-0.8,0-1.4-0.2-1.8-0.6c-0.4-0.4-0.6-0.9-0.6-1.6c0-0.7,0.3-1.2,0.9-1.6c0.6-0.4,1.4-0.6,2.3-0.6h1.4v-0.9c0-0.4-0.1-0.8-0.4-1
	c-0.3-0.3-0.7-0.4-1.1-0.4c-0.3,0-0.6,0-0.9,0.1c-0.3,0.1-0.5,0.2-0.6,0.4l-0.1,0.8h-1v-1.4c0.3-0.3,0.7-0.5,1.2-0.6
	c0.5-0.2,1-0.2,1.6-0.2c0.8,0,1.5,0.2,2,0.6c0.5,0.4,0.8,1,0.8,1.8v3.6c0,0.1,0,0.2,0,0.3c0,0.1,0,0.2,0,0.3l0.5,0.1v0.9H70.8z
	 M68.6,132.9c0.4,0,0.9-0.1,1.2-0.3c0.4-0.2,0.6-0.5,0.8-0.8v-1.2h-1.4c-0.6,0-1,0.1-1.3,0.4c-0.3,0.3-0.5,0.6-0.5,0.9
	c0,0.3,0.1,0.6,0.3,0.7C67.9,132.8,68.2,132.9,68.6,132.9z"/>
<path class="st0" d="M73.7,133l1.1-0.2v-5.3l-1.1-0.2v-0.9h2.5v6.4l1.1,0.2v0.9h-3.6V133z M76.2,124.6h-1.4v-1.4h1.4V124.6z"/>
<path class="st0" d="M78.3,127.3v-0.9h2.3l0.1,1.1c0.2-0.4,0.5-0.7,0.8-0.9c0.3-0.2,0.7-0.3,1.1-0.3c0.1,0,0.2,0,0.3,0
	c0.1,0,0.2,0,0.3,0l-0.2,1.3l-0.8,0c-0.4,0-0.7,0.1-0.9,0.3c-0.2,0.2-0.4,0.4-0.6,0.7v4.3l1.1,0.2v0.9h-3.6V133l1.1-0.2v-5.3
	L78.3,127.3z"/>
<path class="st0" d="M87.4,132.9c0.4,0,0.8-0.1,1.2-0.4c0.3-0.3,0.5-0.6,0.5-1h1.2l0,0c0,0.6-0.3,1.2-0.9,1.7
	c-0.6,0.5-1.3,0.7-2.1,0.7c-1.1,0-1.9-0.4-2.5-1.1c-0.6-0.7-0.9-1.6-0.9-2.6V130c0-1.1,0.3-1.9,0.9-2.6c0.6-0.7,1.4-1.1,2.5-1.1
	c0.6,0,1.1,0.1,1.6,0.3c0.5,0.2,0.9,0.5,1.2,0.8l0.1,1.6h-1.1l-0.3-1.2c-0.2-0.2-0.4-0.3-0.6-0.4s-0.5-0.1-0.9-0.1
	c-0.7,0-1.2,0.3-1.5,0.8c-0.3,0.5-0.5,1.1-0.5,1.9v0.3c0,0.8,0.2,1.4,0.5,1.9C86.1,132.7,86.6,132.9,87.4,132.9z"/>
<path class="st0" d="M96.9,132.8c-0.2,0.4-0.5,0.7-0.9,0.9c-0.4,0.2-0.8,0.3-1.3,0.3c-0.8,0-1.4-0.3-1.9-0.8
	c-0.5-0.5-0.7-1.3-0.7-2.4v-3.3l-0.9-0.2v-0.9h2.2v4.4c0,0.8,0.1,1.3,0.4,1.6c0.2,0.3,0.6,0.4,1.1,0.4c0.5,0,0.9-0.1,1.2-0.3
	c0.3-0.2,0.6-0.5,0.7-0.8v-4.3l-1-0.2v-0.9h2.3v6.4l0.9,0.2v0.9H97L96.9,132.8z"/>
<path class="st0" d="M102.5,124.7v1.8h1.4v1h-1.4v4.5c0,0.3,0.1,0.6,0.2,0.7c0.1,0.1,0.3,0.2,0.6,0.2c0.1,0,0.3,0,0.4,0
	c0.2,0,0.3,0,0.4-0.1l0.2,0.9c-0.1,0.1-0.3,0.1-0.6,0.2c-0.2,0.1-0.5,0.1-0.7,0.1c-0.6,0-1-0.2-1.3-0.5c-0.3-0.3-0.5-0.9-0.5-1.6
	v-4.5H100v-1h1.2v-1.8H102.5z"/>
<path class="st0" d="M111,128.8h-1l-0.2-0.9c-0.2-0.2-0.4-0.3-0.6-0.4c-0.2-0.1-0.5-0.1-0.8-0.1c-0.5,0-0.8,0.1-1.1,0.3
	c-0.2,0.2-0.4,0.5-0.4,0.8c0,0.3,0.1,0.5,0.3,0.7c0.2,0.2,0.6,0.3,1.3,0.5c0.9,0.2,1.6,0.5,2.1,0.8c0.5,0.3,0.7,0.8,0.7,1.4
	c0,0.7-0.3,1.2-0.8,1.6c-0.5,0.4-1.2,0.6-2.1,0.6c-0.6,0-1.1-0.1-1.5-0.2c-0.4-0.1-0.8-0.3-1.2-0.6l0-1.7h1l0.3,1
	c0.2,0.1,0.4,0.2,0.6,0.3c0.3,0.1,0.5,0.1,0.8,0.1c0.5,0,0.9-0.1,1.1-0.3c0.3-0.2,0.4-0.5,0.4-0.8c0-0.3-0.1-0.5-0.3-0.7
	c-0.2-0.2-0.7-0.4-1.3-0.5c-0.9-0.2-1.6-0.5-2-0.8c-0.5-0.3-0.7-0.8-0.7-1.4c0-0.6,0.3-1.1,0.8-1.5c0.5-0.4,1.2-0.6,2-0.6
	c0.6,0,1.1,0.1,1.5,0.2c0.4,0.1,0.8,0.3,1.1,0.6L111,128.8z"/>
<path class="st0" d="M115.9,131.2c0-0.6,0.2-1,0.5-1.5c0.3-0.4,0.8-0.8,1.4-1.3c-0.4-0.5-0.6-0.9-0.8-1.2c-0.2-0.4-0.3-0.7-0.3-1.1
	c0-0.8,0.2-1.4,0.7-1.8c0.4-0.4,1.1-0.6,1.8-0.6c0.7,0,1.3,0.2,1.8,0.6c0.5,0.4,0.7,0.9,0.7,1.5c0,0.4-0.1,0.8-0.4,1.2
	c-0.2,0.3-0.6,0.7-1.1,1l-0.7,0.5l2.3,2.8c0.2-0.3,0.3-0.6,0.4-1c0.1-0.4,0.2-0.7,0.2-1.1h1.2c0,0.6-0.1,1.2-0.3,1.7
	c-0.2,0.5-0.4,1-0.8,1.4l1.3,1.5l0,0h-1.6l-0.6-0.7c-0.4,0.3-0.8,0.5-1.2,0.6c-0.4,0.1-0.9,0.2-1.4,0.2c-1,0-1.8-0.3-2.4-0.8
	C116.2,132.7,115.9,132,115.9,131.2z M119.1,132.9c0.3,0,0.7-0.1,1-0.2c0.3-0.1,0.6-0.3,0.9-0.5l-2.5-3l-0.3,0.2
	c-0.4,0.3-0.7,0.6-0.8,0.9c-0.1,0.3-0.2,0.5-0.2,0.8c0,0.5,0.2,0.9,0.5,1.3C118,132.8,118.5,132.9,119.1,132.9z M118.1,126.1
	c0,0.2,0.1,0.5,0.2,0.8c0.1,0.3,0.3,0.5,0.6,0.9l0.9-0.7c0.3-0.2,0.4-0.4,0.5-0.6c0.1-0.2,0.1-0.4,0.1-0.7c0-0.3-0.1-0.5-0.3-0.7
	c-0.2-0.2-0.5-0.3-0.9-0.3c-0.4,0-0.7,0.1-0.9,0.4C118.2,125.5,118.1,125.8,118.1,126.1z"/>
<path class="st0" d="M135.4,126.8h-1l-0.3-1.4c-0.2-0.2-0.5-0.3-0.8-0.4c-0.3-0.1-0.7-0.2-1.2-0.2c-0.7,0-1.3,0.2-1.7,0.5
	c-0.4,0.3-0.6,0.7-0.6,1.2c0,0.4,0.2,0.8,0.6,1.1c0.4,0.3,1,0.5,1.9,0.8c1.1,0.3,1.9,0.6,2.4,1.2c0.5,0.5,0.8,1.1,0.8,1.9
	c0,0.8-0.3,1.4-1,1.9c-0.7,0.5-1.5,0.7-2.6,0.7c-0.8,0-1.5-0.1-2.1-0.4c-0.6-0.3-1.1-0.6-1.5-1v-1.9h1l0.3,1.4
	c0.3,0.2,0.6,0.4,0.9,0.5c0.4,0.1,0.8,0.2,1.3,0.2c0.7,0,1.2-0.1,1.6-0.4c0.4-0.3,0.6-0.7,0.6-1.2c0-0.5-0.2-0.8-0.5-1.1
	c-0.3-0.3-0.9-0.6-1.8-0.8c-1.1-0.3-1.9-0.6-2.5-1.1c-0.6-0.5-0.9-1.1-0.9-1.8c0-0.8,0.3-1.4,1-1.9c0.7-0.5,1.5-0.8,2.6-0.8
	c0.7,0,1.3,0.1,1.9,0.4c0.6,0.2,1,0.5,1.4,0.9V126.8z"/>
<path class="st0" d="M136.7,133l1.1-0.2v-8.6l-1.1-0.2v-0.9h2.5v4.3c0.3-0.4,0.6-0.6,0.9-0.8c0.4-0.2,0.8-0.3,1.2-0.3
	c0.8,0,1.4,0.2,1.9,0.7c0.4,0.5,0.7,1.2,0.7,2.2v3.6l1.1,0.2v0.9h-3.6V133l1.1-0.2v-3.6c0-0.6-0.1-1.1-0.4-1.4
	c-0.3-0.3-0.7-0.4-1.2-0.4c-0.4,0-0.7,0.1-1,0.3c-0.3,0.2-0.6,0.4-0.7,0.7v4.4l1.1,0.2v0.9h-3.6V133z"/>
<path class="st0" d="M150.8,133.9c0-0.2-0.1-0.4-0.1-0.5c0-0.2,0-0.3,0-0.5c-0.3,0.3-0.6,0.6-1,0.8c-0.4,0.2-0.8,0.3-1.3,0.3
	c-0.8,0-1.4-0.2-1.8-0.6c-0.4-0.4-0.6-0.9-0.6-1.6c0-0.7,0.3-1.2,0.9-1.6c0.6-0.4,1.4-0.6,2.3-0.6h1.4v-0.9c0-0.4-0.1-0.8-0.4-1
	c-0.3-0.3-0.7-0.4-1.1-0.4c-0.3,0-0.6,0-0.9,0.1c-0.3,0.1-0.5,0.2-0.6,0.4l-0.1,0.8h-1v-1.4c0.3-0.3,0.7-0.5,1.2-0.6
	c0.5-0.2,1-0.2,1.6-0.2c0.8,0,1.5,0.2,2,0.6s0.8,1,0.8,1.8v3.6c0,0.1,0,0.2,0,0.3c0,0.1,0,0.2,0,0.3l0.5,0.1v0.9H150.8z
	 M148.6,132.9c0.4,0,0.9-0.1,1.2-0.3c0.4-0.2,0.6-0.5,0.8-0.8v-1.2h-1.4c-0.6,0-1,0.1-1.3,0.4c-0.3,0.3-0.5,0.6-0.5,0.9
	c0,0.3,0.1,0.6,0.3,0.7C147.9,132.8,148.2,132.9,148.6,132.9z"/>
<path class="st0" d="M156.2,127.3l-0.9,0.1l1.5,4.2l0.1,0.5h0l0.1-0.5l1.5-4.2l-0.9-0.1v-0.9h2.9v0.9l-0.6,0.1l-2.5,6.4h-1l-2.5-6.4
	l-0.6-0.1v-0.9h2.9V127.3z"/>
<path class="st0" d="M164.8,134c-1,0-1.9-0.3-2.5-1c-0.6-0.7-0.9-1.6-0.9-2.7V130c0-1.1,0.3-1.9,0.9-2.6c0.6-0.7,1.4-1.1,2.2-1.1
	c1,0,1.8,0.3,2.3,0.9c0.5,0.6,0.8,1.4,0.8,2.4v0.8h-4.8l0,0c0,0.7,0.2,1.3,0.5,1.8c0.3,0.5,0.8,0.7,1.5,0.7c0.5,0,0.9-0.1,1.2-0.2
	c0.3-0.1,0.6-0.3,0.9-0.5l0.5,0.9c-0.3,0.3-0.6,0.5-1.1,0.7C165.9,133.9,165.4,134,164.8,134z M164.6,127.4c-0.5,0-0.8,0.2-1.2,0.6
	c-0.3,0.4-0.5,0.9-0.6,1.4l0,0h3.4v-0.2c0-0.5-0.1-1-0.4-1.3C165.5,127.6,165.1,127.4,164.6,127.4z"/>
<path class="st0" d="M174.6,128.8h-1l-0.2-0.9c-0.2-0.2-0.4-0.3-0.6-0.4c-0.2-0.1-0.5-0.1-0.8-0.1c-0.5,0-0.8,0.1-1.1,0.3
	c-0.2,0.2-0.4,0.5-0.4,0.8c0,0.3,0.1,0.5,0.3,0.7c0.2,0.2,0.6,0.3,1.3,0.5c0.9,0.2,1.6,0.5,2.1,0.8c0.5,0.3,0.7,0.8,0.7,1.4
	c0,0.7-0.3,1.2-0.8,1.6c-0.5,0.4-1.2,0.6-2.1,0.6c-0.6,0-1.1-0.1-1.5-0.2c-0.4-0.1-0.9-0.3-1.2-0.6l0-1.7h1l0.3,1
	c0.2,0.1,0.4,0.2,0.6,0.3c0.3,0.1,0.5,0.1,0.8,0.1c0.5,0,0.9-0.1,1.1-0.3c0.3-0.2,0.4-0.5,0.4-0.8c0-0.3-0.1-0.5-0.3-0.7
	c-0.2-0.2-0.7-0.4-1.3-0.5c-0.9-0.2-1.6-0.5-2-0.8c-0.5-0.3-0.7-0.8-0.7-1.4c0-0.6,0.3-1.1,0.8-1.5c0.5-0.4,1.2-0.6,2-0.6
	c0.6,0,1.1,0.1,1.5,0.2c0.4,0.1,0.8,0.3,1.1,0.6L174.6,128.8z"/>
<path class="st0" d="M83.1,9.1L83.9,9l3.5-9h1.2L92,9l0.7,0.1V10h-2.9V9.1L90.6,9l-0.7-1.8h-4L85.2,9L86,9.1V10h-2.9V9.1z M86.3,6
	h3.2L88,1.7h0L86.3,6z"/>
<path class="st0" d="M95.5,3.4l-0.9,0.2l1,3.7l0.2,0.9h0L96,7.3l1.5-4.7h1.1l1.5,4.7l0.2,1h0l0.2-1l0.9-3.7l-0.9-0.2V2.6h2.8v0.9
	l-0.6,0.1l-1.9,6.4h-1.1l-1.4-4.5L98,4.2l0,0l-0.3,1.2L96.2,10h-1.1l-1.9-6.4l-0.7-0.1V2.6h2.8V3.4z"/>
<path class="st0" d="M107.8,10.1c-1,0-1.9-0.3-2.5-1c-0.6-0.7-0.9-1.6-0.9-2.7V6.1c0-1.1,0.3-1.9,0.9-2.6c0.6-0.7,1.4-1.1,2.2-1.1
	c1,0,1.8,0.3,2.3,0.9c0.5,0.6,0.8,1.4,0.8,2.4v0.8h-4.8l0,0c0,0.7,0.2,1.3,0.5,1.8c0.3,0.5,0.8,0.7,1.5,0.7c0.5,0,0.9-0.1,1.2-0.2
	c0.3-0.1,0.6-0.3,0.9-0.5l0.5,0.9c-0.3,0.3-0.6,0.5-1.1,0.7C109,10,108.5,10.1,107.8,10.1z M107.6,3.5c-0.5,0-0.8,0.2-1.2,0.6
	c-0.3,0.4-0.5,0.9-0.6,1.4l0,0h3.4V5.3c0-0.5-0.1-1-0.4-1.3C108.6,3.7,108.2,3.5,107.6,3.5z"/>
<path class="st0" d="M117.7,4.9h-1L116.5,4c-0.2-0.2-0.4-0.3-0.6-0.4c-0.2-0.1-0.5-0.1-0.8-0.1c-0.5,0-0.8,0.1-1.1,0.3
	c-0.2,0.2-0.3,0.5-0.3,0.8c0,0.3,0.1,0.5,0.3,0.7c0.2,0.2,0.6,0.3,1.3,0.5c0.9,0.2,1.6,0.5,2.1,0.8c0.5,0.3,0.7,0.8,0.7,1.4
	c0,0.7-0.3,1.2-0.8,1.6c-0.5,0.4-1.2,0.6-2.1,0.6c-0.6,0-1.1-0.1-1.5-0.2c-0.4-0.1-0.8-0.3-1.2-0.6l0-1.7h1l0.3,1
	c0.2,0.1,0.4,0.2,0.6,0.3c0.3,0.1,0.5,0.1,0.8,0.1c0.5,0,0.9-0.1,1.1-0.3c0.3-0.2,0.4-0.5,0.4-0.8c0-0.3-0.1-0.5-0.3-0.7
	c-0.2-0.2-0.7-0.4-1.3-0.5c-0.9-0.2-1.6-0.5-2-0.8c-0.5-0.3-0.7-0.8-0.7-1.4c0-0.6,0.3-1.1,0.8-1.5c0.5-0.4,1.2-0.6,2-0.6
	c0.6,0,1.1,0.1,1.5,0.2c0.4,0.1,0.8,0.3,1.1,0.6L117.7,4.9z"/>
<path class="st0" d="M119.2,6.2c0-1.1,0.3-2,0.9-2.7c0.6-0.7,1.4-1.1,2.4-1.1c1,0,1.8,0.4,2.4,1.1c0.6,0.7,0.9,1.6,0.9,2.7v0.2
	c0,1.1-0.3,2-0.9,2.7c-0.6,0.7-1.4,1.1-2.4,1.1c-1,0-1.8-0.4-2.4-1.1c-0.6-0.7-0.9-1.6-0.9-2.7V6.2z M120.6,6.3
	c0,0.8,0.2,1.4,0.5,1.9c0.3,0.5,0.8,0.8,1.5,0.8c0.6,0,1.1-0.3,1.5-0.8c0.3-0.5,0.5-1.2,0.5-1.9V6.2c0-0.8-0.2-1.4-0.5-1.9
	c-0.3-0.5-0.8-0.8-1.5-0.8s-1.1,0.3-1.5,0.8c-0.3,0.5-0.5,1.2-0.5,1.9V6.3z"/>
<path class="st0" d="M126.8,9.1l1.1-0.2V3.6l-1.1-0.2V2.6h2.3l0.1,1c0.2-0.4,0.5-0.6,0.9-0.8c0.4-0.2,0.8-0.3,1.3-0.3
	c0.5,0,0.9,0.1,1.3,0.3c0.4,0.2,0.6,0.6,0.8,1c0.2-0.4,0.5-0.8,0.9-1c0.4-0.2,0.8-0.4,1.3-0.4c0.8,0,1.4,0.3,1.8,0.8
	c0.4,0.5,0.7,1.3,0.7,2.3v3.4l1.1,0.2V10h-3.6V9.1l1.1-0.2V5.5c0-0.7-0.1-1.2-0.4-1.5c-0.3-0.3-0.6-0.5-1.1-0.5
	c-0.5,0-0.9,0.2-1.1,0.5c-0.3,0.3-0.4,0.7-0.5,1.2v3.6l1.1,0.2V10h-3.6V9.1l1.1-0.2V5.5c0-0.7-0.1-1.2-0.4-1.5
	c-0.3-0.3-0.6-0.5-1.1-0.5c-0.4,0-0.8,0.1-1,0.3c-0.3,0.2-0.5,0.4-0.6,0.7v4.4l1.1,0.2V10h-3.6V9.1z"/>
<path class="st0" d="M143.7,10.1c-1,0-1.9-0.3-2.5-1c-0.6-0.7-0.9-1.6-0.9-2.7V6.1c0-1.1,0.3-1.9,0.9-2.6c0.6-0.7,1.4-1.1,2.2-1.1
	c1,0,1.8,0.3,2.3,0.9c0.5,0.6,0.8,1.4,0.8,2.4v0.8h-4.8l0,0c0,0.7,0.2,1.3,0.5,1.8c0.3,0.5,0.8,0.7,1.5,0.7c0.5,0,0.9-0.1,1.2-0.2
	c0.3-0.1,0.6-0.3,0.9-0.5l0.5,0.9c-0.3,0.3-0.6,0.5-1.1,0.7C144.8,10,144.3,10.1,143.7,10.1z M143.5,3.5c-0.5,0-0.8,0.2-1.2,0.6
	c-0.3,0.4-0.5,0.9-0.6,1.4l0,0h3.4V5.3c0-0.5-0.1-1-0.4-1.3C144.5,3.7,144.1,3.5,143.5,3.5z"/>
<rect y="106.1" class="st1" width="230" height="2"/>
<rect y="26" class="st1" width="230" height="2"/>
<path class="st2" d="M53.3,64.8v14.1c0,1.2-0.2,2.3-0.7,3.4c-0.5,1-1.1,2-1.9,2.7s-1.7,1.4-2.8,1.9c-1.1,0.5-2.2,0.7-3.4,0.7
	s-2.3-0.2-3.4-0.7c-1-0.4-2-1-2.8-1.8c-0.8-0.8-1.4-1.7-1.9-2.7c-0.5-1-0.7-2.2-0.7-3.4V68.7c-0.1-1.2-0.6-2-1.6-2.5
	c0.5-0.3,1-0.4,1.6-0.4V52.6c0-1.2,0.3-2.3,0.7-3.4c0.5-1,1.1-1.9,1.9-2.7c0.8-0.8,1.7-1.4,2.8-1.9c1.1-0.4,2.2-0.7,3.4-0.7
	s2.3,0.2,3.4,0.7c1.1,0.4,2,1.1,2.8,1.9s1.4,1.7,1.9,2.8c0.5,1,0.7,2.2,0.7,3.4c0,0.6,0.1,1.1,0.2,1.4c0.1,0.3,0.3,0.5,0.5,0.7
	c0.1,0.2,0.3,0.4,0.4,0.5c0.1,0.1,0.2,0.4,0.2,0.7h-2.9c-0.6-0.1-0.9-0.4-0.9-1c0,0.6-0.3,0.9-0.9,1h-3c0-0.3,0.1-0.6,0.2-0.7
	c0.2-0.1,0.3-0.3,0.5-0.5c0.1-0.2,0.3-0.4,0.4-0.7c0.2-0.3,0.2-0.8,0.2-1.5v-0.1c0-0.5,0-1.1-0.1-1.7c0-0.7-0.2-1.4-0.4-2
	c-0.2-0.6-0.6-1.2-1.1-1.6c-0.5-0.4-1.2-0.7-2-0.7c-0.9,0-1.6,0.2-2.1,0.7c-0.5,0.4-0.8,1-1,1.6c-0.2,0.6-0.4,1.3-0.4,2
	c0,0.7-0.1,1.3-0.1,1.8v13c0.5,0,1,0.1,1.6,0.4c-0.9,0.5-1.5,1.4-1.6,2.5v10.1c0,0.5,0,1.1,0.1,1.8c0,0.7,0.2,1.3,0.4,2
	c0.2,0.6,0.6,1.2,1,1.6c0.5,0.4,1.2,0.7,2.1,0.7c0.9,0,1.6-0.2,2-0.7c0.5-0.4,0.8-1,1.1-1.6c0.2-0.7,0.4-1.3,0.4-2
	c0-0.7,0.1-1.3,0.1-1.8V67.4c-0.4,0-0.8,0.2-1.1,0.5c-0.3,0.3-0.4,0.7-0.4,1.1V69c0,0.6-0.2,1-0.5,1.5c-0.2,0.4-0.6,0.7-1,1
	c-0.5,0.3-1.1,0.4-2,0.4v-7.1H53.3z M38.8,63.2c0-0.2,0-0.4-0.1-0.7c0-0.2,0-0.4,0-0.6v-1.3c0-0.8-0.1-1.6-0.1-2.4
	c0-0.7,0-1.5-0.1-2.1c0-0.3-0.1-0.6-0.1-0.9c0-0.3,0-0.6-0.1-0.9c0-0.3,0-0.5-0.1-0.7c0-0.3,0-0.5,0-0.7c0-0.2,0-0.4-0.1-0.5
	c0-0.1,0-0.3,0-0.4v-0.3c0,0-0.1,0-0.1,0.1V52c0,0.1,0,0.2-0.1,0.4c0,0.1,0,0.3,0,0.5c0,0.2,0,0.4-0.1,0.7c0,0.2,0,0.5,0,0.7
	c0,0.3-0.1,0.6-0.1,0.9c0,0.3,0,0.6-0.1,0.9c0,0.7-0.1,1.4-0.1,2.1c0,0.7,0,1.5-0.1,2.4v1.3c0,0.2,0,0.4-0.1,0.6c0,0.2,0,0.4,0,0.7
	v5.2c0,0.1,0,0.2,0,0.3c0,0.1,0.1,0.2,0.1,0.3v1.9c0,0.4,0,0.8,0,1.2c0,0.4,0.1,0.7,0.1,1.1c0,0.4,0,0.8,0,1.2c0,0.3,0.1,0.7,0.1,1
	c0,0.3,0.1,0.7,0.1,1c0,0.3,0,0.6,0.1,0.8c0,0.3,0,0.6,0,0.8c0,0.2,0.1,0.4,0.1,0.6c0,0.2,0,0.4,0,0.5c0,0.1,0.1,0.3,0.1,0.4v0.3
	c0,0,0,0.1,0.1,0.1v-0.3c0-0.1,0-0.2,0-0.4c0-0.1,0.1-0.3,0.1-0.5c0-0.2,0-0.4,0-0.6c0-0.2,0.1-0.5,0.1-0.8c0-0.3,0.1-0.5,0.1-0.8
	c0-0.3,0-0.6,0.1-1c0-0.3,0-0.6,0-1c0-0.4,0.1-0.8,0.1-1.2c0-0.4,0-0.7,0-1.1c0-0.4,0.1-0.8,0.1-1.2v-1.2c0-0.3,0-0.5,0.1-0.7V63.2z
	 M51,71.3c0-0.4-0.1-0.7-0.1-1c0-0.3,0-0.7-0.1-1c0-0.6-0.1-1-0.2-1.4c0-0.1,0-0.1-0.1-0.2c0-0.1,0-0.1,0-0.2v-0.2l-0.1,0.1v0.1
	c0,0,0,0.1-0.1,0.2c0,0.1,0,0.1,0,0.2c-0.1,0.4-0.1,0.8-0.2,1.4c0,0.3-0.1,0.6-0.1,1c0,0.3,0,0.6-0.1,1v0.6c0,0.1,0,0.2-0.1,0.3
	c0,0.1,0,0.1,0,0.2v2.4c0,0.1,0,0.2,0.1,0.3v0.8c0,0.2,0,0.4,0,0.5c0,0.1,0.1,0.3,0.1,0.5c0,0.2,0,0.4,0,0.5c0,0.1,0.1,0.3,0.1,0.4
	c0,0.1,0.1,0.3,0.1,0.4c0,0.1,0,0.2,0.1,0.3c0,0.1,0,0.2,0,0.3c0,0.1,0.1,0.2,0.1,0.3c0,0.1,0,0.1,0,0.2c0,0.1,0.1,0.1,0.1,0.2v0.1
	c0,0,0,0.1,0.1,0.1v-0.2c0,0,0-0.1,0-0.2c0-0.1,0.1-0.1,0.1-0.2c0-0.1,0-0.2,0-0.3c0-0.1,0.1-0.2,0.1-0.3c0-0.1,0.1-0.2,0.1-0.3
	c0-0.1,0-0.3,0.1-0.4c0-0.1,0-0.3,0-0.4c0-0.1,0.1-0.3,0.1-0.5c0-0.2,0-0.4,0-0.5c0-0.1,0.1-0.3,0.1-0.5v-0.6c0-0.1,0-0.2,0.1-0.3
	v-2.6c0-0.1,0-0.1-0.1-0.2c0-0.1,0-0.2,0-0.3V71.3z"/>
<path class="st2" d="M73.7,65.9c0.6,0,1.2,0.1,1.6,0.4c-0.4,0.3-0.8,0.6-1.1,1.1c-0.3,0.4-0.4,0.9-0.5,1.5v8.5
	c0,1.2-0.3,2.3-0.8,3.4c-0.4,1-1.1,1.9-1.9,2.7c-0.8,0.7-1.7,1.3-2.8,1.8c-1,0.4-2.2,0.7-3.4,0.7c-1.2,0-2.3-0.2-3.4-0.7
	c-1.1-0.4-2-1-2.8-1.8c-0.8-0.8-1.4-1.7-1.9-2.7c-0.5-1-0.7-2.2-0.7-3.4v-8.5c-0.1-1.2-0.6-2-1.6-2.5c0.4-0.3,0.9-0.4,1.6-0.4V55
	c0-1.2,0.3-2.3,0.7-3.3c0.5-1,1.1-1.9,1.9-2.7c0.8-0.8,1.7-1.4,2.8-1.9c1-0.4,2.2-0.7,3.4-0.7c1.2,0,2.3,0.2,3.4,0.7
	c1.1,0.4,2,1.1,2.8,1.9c0.8,0.7,1.4,1.6,1.9,2.7c0.5,1,0.8,2.1,0.8,3.3V65.9z M59.2,63.8c0-0.2,0-0.4-0.1-0.5c0-0.2,0-0.4,0-0.6
	v-1.1c0-0.7-0.1-1.4-0.1-2s0-1.2-0.1-1.8c0-0.3-0.1-0.5-0.1-0.8s0-0.5-0.1-0.7c0-0.2,0-0.4-0.1-0.6c0-0.2,0-0.4,0-0.5
	c0-0.2,0-0.3-0.1-0.4c0-0.1,0-0.3,0-0.3v-0.3c0,0-0.1,0-0.1,0.1v0.2c0,0.1,0,0.2-0.1,0.3c0,0.1,0,0.3,0,0.4c0,0.1,0,0.3-0.1,0.5
	c0,0.2,0,0.4,0,0.6c0,0.2-0.1,0.5-0.1,0.7s0,0.5-0.1,0.8c0,0.6-0.1,1.2-0.1,1.8s0,1.3-0.1,2v1.1c0,0.2,0,0.4-0.1,0.6
	c0,0.1,0,0.3,0,0.5v4.4c0,0.3,0,0.4,0.1,0.6v1.6c0,0.3,0,0.7,0,1c0,0.3,0.1,0.7,0.1,1c0,0.3,0,0.7,0,1c0,0.3,0.1,0.5,0.1,0.8
	c0,0.3,0.1,0.6,0.1,0.8c0,0.2,0,0.4,0.1,0.7c0,0.2,0,0.4,0,0.6c0,0.2,0.1,0.4,0.1,0.6c0,0.2,0,0.4,0,0.5c0,0.1,0.1,0.2,0.1,0.3v0.2
	c0,0,0,0.1,0.1,0.1v-0.2c0-0.1,0-0.2,0-0.3c0-0.1,0.1-0.3,0.1-0.5c0-0.2,0-0.4,0-0.6c0-0.2,0.1-0.4,0.1-0.6c0-0.2,0.1-0.4,0.1-0.7
	c0-0.3,0-0.5,0.1-0.8c0-0.3,0-0.6,0-0.8c0-0.3,0.1-0.6,0.1-1c0-0.3,0-0.6,0-1c0-0.3,0.1-0.7,0.1-1v-1.6c0-0.1,0.1-0.3,0.1-0.6V63.8z
	 M68.5,55.3c0-0.5,0-1.1-0.1-1.8c0-0.7-0.2-1.4-0.4-2c-0.2-0.6-0.6-1.2-1.1-1.6c-0.4-0.5-1.1-0.7-2-0.7c-0.9,0-1.6,0.2-2.1,0.7
	c-0.5,0.4-0.8,1-1,1.6c-0.2,0.6-0.4,1.3-0.4,2c0,0.7-0.1,1.3-0.1,1.8v10.6c0.6,0,1.2,0.1,1.6,0.4c-0.9,0.5-1.5,1.4-1.6,2.5V77
	c0,0.5,0,1.1,0.1,1.8c0,0.7,0.2,1.3,0.4,2c0.2,0.6,0.6,1.2,1,1.6c0.5,0.4,1.2,0.7,2.1,0.7c0.9,0,1.6-0.2,2-0.7
	c0.5-0.4,0.8-1,1.1-1.6c0.2-0.7,0.4-1.3,0.4-2c0-0.7,0.1-1.3,0.1-1.8v-8.2c-0.1-1.1-0.6-2-1.6-2.5c0.4-0.3,0.9-0.4,1.6-0.4V55.3z
	 M71.5,63.8c0-0.2,0-0.4,0-0.5c0-0.2,0-0.4-0.1-0.6v-1.1c0-0.7,0-1.4-0.1-2c0-0.6,0-1.2-0.1-1.8c0-0.3-0.1-0.5-0.1-0.8
	s0-0.5-0.1-0.7c0-0.2,0-0.4-0.1-0.6c0-0.2,0-0.4,0-0.5c0-0.2,0-0.3-0.1-0.4c0-0.1,0-0.3,0-0.3v-0.3c0,0-0.1,0-0.1,0.1v0.2
	c0,0.1,0,0.2,0,0.3c0,0.1,0,0.3-0.1,0.4c0,0.1,0,0.3-0.1,0.5c0,0.2,0,0.4,0,0.6c0,0.2-0.1,0.5-0.1,0.7s0,0.5-0.1,0.8
	c0,0.6-0.1,1.2-0.1,1.8s0,1.3-0.1,2v2.1c0,0.4-0.1,0.7-0.1,1.1c0,0.4,0,0.7,0,1.1c0,0.4,0,0.7,0,1.1c0,0.3,0,0.7,0.1,1.1v2.2
	c0,0.3,0,0.7,0,1c0,0.3,0.1,0.7,0.1,1c0,0.3,0,0.7,0,1c0,0.3,0.1,0.5,0.1,0.8c0,0.3,0.1,0.6,0.1,0.8c0,0.2,0,0.4,0.1,0.7
	c0,0.2,0,0.4,0,0.6c0,0.2,0.1,0.4,0.1,0.6c0,0.2,0.1,0.4,0.1,0.5c0,0.1,0,0.2,0,0.3v0.2c0,0,0,0.1,0.1,0.1v-0.2c0-0.1,0-0.2,0-0.3
	c0-0.1,0.1-0.3,0.1-0.5c0-0.2,0-0.4,0-0.6c0-0.2,0.1-0.4,0.1-0.6c0-0.2,0.1-0.4,0.1-0.7c0-0.3,0-0.5,0.1-0.8c0-0.3,0-0.6,0-0.8
	c0-0.3,0.1-0.6,0.1-1c0-0.3,0-0.6,0-1c0-0.3,0.1-0.7,0.1-1v-1.1c0-0.1,0-0.2,0-0.3c0-0.1,0.1-0.2,0.1-0.3V63.8z"/>
<path class="st2" d="M94.6,58.6c0,1.7-0.4,3.2-1.2,4.5c-0.8,1.3-1.9,2.4-3.3,3.1c0.7,0.5,1.3,1.1,1.9,1.9c0.6,0.7,1,1.4,1.4,2.2
	c0.4,0.8,0.7,1.7,1,2.5c0.2,0.9,0.3,1.7,0.3,2.5V79c0,1.2-0.3,2.3-0.7,3.4c-0.4,1-1.1,1.9-1.9,2.7c-0.8,0.7-1.7,1.3-2.8,1.8
	c-1.1,0.5-2.2,0.7-3.4,0.7h-5.3c-0.3,0-0.5-0.1-0.7-0.3c-0.2-0.2-0.2-0.4-0.2-0.7c0,0.3-0.1,0.5-0.3,0.7c-0.2,0.2-0.4,0.3-0.6,0.3
	h-3c0-0.3,0.1-0.6,0.2-0.7c0.2-0.1,0.3-0.3,0.5-0.5c0.1-0.1,0.3-0.4,0.4-0.7c0.1-0.3,0.2-0.8,0.2-1.4V68.7c-0.1-1.1-0.6-1.9-1.6-2.5
	c0.5-0.3,1-0.4,1.6-0.4V47.3c0-0.6-0.1-1.1-0.2-1.4c-0.1-0.3-0.2-0.5-0.4-0.7c-0.2-0.2-0.3-0.4-0.5-0.5c-0.1-0.1-0.2-0.4-0.2-0.7h3
	c0.2,0,0.4,0.1,0.6,0.3c0.2,0.1,0.3,0.4,0.3,0.6c0-0.6,0.3-0.9,0.9-0.9h5.3c1.2,0,2.3,0.2,3.4,0.7c1,0.4,2,1.1,2.8,1.9
	c0.8,0.7,1.4,1.6,1.9,2.7c0.5,1,0.7,2.1,0.7,3.3V58.6z M80.1,62.8c0-0.3,0-0.5-0.1-0.7c0-0.3,0-0.5,0-0.7v-1.5c0-1-0.1-1.9-0.1-2.7
	s0-1.7-0.1-2.4c0-0.4-0.1-0.8-0.1-1.1s0-0.7-0.1-1c0-0.3,0-0.6-0.1-0.8c0-0.3,0-0.5,0-0.7c0-0.2,0-0.4-0.1-0.6c0-0.2,0-0.3,0-0.4
	v-0.3c0,0-0.1,0.1-0.1,0.1V50c0,0.1,0,0.3-0.1,0.4c0,0.2,0,0.4,0,0.6c0,0.2,0,0.4-0.1,0.7c0,0.3,0,0.5,0,0.8c0,0.3-0.1,0.6-0.1,1
	s0,0.7-0.1,1.1c0,0.7-0.1,1.6-0.1,2.4s0,1.8-0.1,2.7v1.5c0,0.2,0,0.5,0,0.7c0,0.2,0,0.5-0.1,0.7v6c0,0.1,0,0.3,0,0.4
	c0,0.1,0.1,0.2,0.1,0.4v2.1c0,0.5,0,1,0,1.5c0,0.4,0.1,0.9,0.1,1.3c0,0.4,0,0.8,0,1.2c0,0.4,0.1,0.8,0.1,1.2c0,0.2,0.1,0.4,0.1,0.6
	c0,0.1,0,0.3,0,0.5c0,0.2,0,0.4,0,0.5c0,0.1,0.1,0.3,0.1,0.4c0,0.3,0,0.6,0,0.9c0,0.3,0.1,0.5,0.1,0.7c0,0.2,0,0.4,0,0.6
	c0,0.1,0.1,0.3,0.1,0.4v0.3c0,0,0,0.1,0.1,0.1v-0.4c0-0.1,0-0.2,0-0.4c0-0.2,0.1-0.4,0.1-0.6c0-0.2,0-0.5,0-0.7
	c0-0.3,0.1-0.6,0.1-0.9c0-0.1,0.1-0.3,0.1-0.4c0-0.1,0-0.3,0-0.5c0-0.2,0-0.4,0-0.5c0-0.2,0.1-0.4,0.1-0.6c0-0.4,0-0.8,0-1.2
	c0-0.4,0.1-0.8,0.1-1.2c0-0.4,0-0.8,0-1.3c0-0.5,0.1-1,0.1-1.5v-1.4c0-0.3,0-0.6,0.1-0.7V62.8z M91.7,77.9c0,0.1-0.1,0.3-0.1,0.6v1
	c0,0.2,0,0.4-0.1,0.5c0,0.1,0,0.3,0,0.4s0,0.3-0.1,0.4c0,0.1,0,0.2,0,0.3v0.2c0,0-0.1,0.1-0.1,0.2v0.3c0,0-0.1,0.1-0.1,0.1V82
	c0,0,0,0.1-0.1,0.1c0,0,0,0,0,0.1s0,0.1-0.1,0.1h0.1c0,0,0,0,0.1-0.1c0,0,0,0,0.1-0.1c0,0,0.1-0.1,0.1-0.1c0,0,0.1-0.1,0.1-0.1
	c0,0,0.1-0.1,0.1-0.1c0,0,0.1-0.1,0.1-0.2c0.1-0.1,0.1-0.2,0.1-0.3c0.1-0.1,0.2-0.4,0.2-0.8c0.1-0.2,0.1-0.4,0.1-0.4
	c0-0.1,0.1-0.1,0.1-0.2c0-0.1,0-0.2,0.1-0.3c0-0.1,0-0.1,0-0.2c0-0.1,0.1-0.2,0.1-0.3c0-0.1,0.1-0.3,0.1-0.5c0-0.2,0.1-0.4,0.1-0.6
	c0-0.2,0-0.4,0.1-0.6v-2.4c0-0.2,0-0.4-0.1-0.6c0-0.2,0-0.4-0.1-0.6c0-0.2,0-0.4-0.1-0.5c0-0.1,0-0.1-0.1-0.2c0-0.1,0-0.2,0-0.3
	c0-0.1-0.1-0.1-0.1-0.2c0-0.1,0-0.2-0.1-0.3c0-0.1,0-0.1-0.1-0.2c0-0.1,0-0.1,0-0.2c-0.1-0.2-0.1-0.4-0.1-0.4c0-0.1-0.1-0.2-0.2-0.4
	c0-0.1,0-0.2-0.1-0.3c0-0.1,0-0.2-0.1-0.3c-0.1-0.1-0.1-0.3-0.2-0.3c0,0-0.1-0.1-0.1-0.1h-0.1c0,0,0,0,0.1,0.1c0,0,0,0.1,0,0.1
	c0,0,0.1,0,0.1,0.1c0,0.1,0,0.1,0.1,0.2V71c0,0.1,0.1,0.2,0.1,0.3c0,0.2,0,0.3,0.1,0.4V72c0,0.1,0.1,0.3,0.1,0.4c0,0.1,0,0.3,0,0.5
	v0.5c0,0.1,0,0.2,0,0.3c0,0.1,0.1,0.1,0.1,0.2V77.9z M89.4,75.5c0-0.5,0-1.2-0.1-2.1c0-0.9-0.2-1.8-0.4-2.7
	c-0.2-0.9-0.6-1.7-1.1-2.3c-0.5-0.7-1.1-1-2-1h-2c-0.4,0-0.8,0.1-1.1,0.4c-0.3,0.3-0.5,0.7-0.5,1.1v14.6c0,0.4,0.2,0.8,0.5,1.1
	c0.3,0.3,0.7,0.4,1.1,0.4h2c0.9,0,1.6-0.2,2-0.7c0.5-0.5,0.8-1,1.1-1.7s0.4-1.3,0.4-2c0-0.7,0.1-1.3,0.1-1.8V75.5z M89.4,52.7
	c0-0.5,0-1.1-0.1-1.7c0-0.7-0.2-1.4-0.4-2c-0.2-0.6-0.6-1.2-1.1-1.6c-0.5-0.5-1.1-0.7-2-0.7h-2c-0.4,0-0.8,0.1-1.1,0.4
	c-0.3,0.3-0.5,0.7-0.5,1.1v15.1c0,0.4,0.2,0.8,0.5,1.1c0.3,0.3,0.7,0.4,1.1,0.4h2c0.9,0,1.6-0.2,2-0.7c0.5-0.4,0.8-1,1.1-1.6
	c0.2-0.7,0.4-1.3,0.4-2c0-0.7,0.1-1.3,0.1-1.8V52.7z M91.9,60.1c0.1-0.2,0.1-0.4,0.1-0.4c0.1-0.1,0.1-0.3,0.1-0.4
	c0-0.1,0.1-0.1,0.1-0.2c0-0.1,0-0.2,0.1-0.3c0-0.1,0-0.1,0-0.2c0-0.1,0.1-0.2,0.1-0.3c0-0.1,0.1-0.3,0.1-0.6c0-0.2,0.1-0.4,0.1-0.6
	c0-0.2,0-0.4,0.1-0.6v-1.2c0-0.4,0-0.8,0-1.2c0-0.4,0-0.8-0.1-1.2c0-0.1-0.1-0.2-0.1-0.3c0-0.1,0-0.2-0.1-0.3c0-0.3,0-0.4-0.1-0.6
	c0-0.2-0.1-0.4-0.1-0.5c0-0.1,0-0.3-0.1-0.4c-0.1-0.2-0.1-0.4-0.1-0.4c-0.1-0.1-0.1-0.3-0.1-0.3c-0.1-0.1-0.1-0.3-0.2-0.3
	c0-0.1,0-0.2-0.1-0.3c0-0.1-0.1-0.2-0.2-0.4l-0.1-0.1V49c0,0,0,0.1,0,0.1c0,0,0.1,0,0.1,0.1c0,0,0.1,0.1,0.1,0.2
	c0,0.1,0,0.1,0.1,0.2v0.3c0,0.1,0.1,0.2,0.1,0.3c0,0.1,0,0.1,0,0.2c0,0,0.1,0.1,0.1,0.2v0.4c0,0.1,0.1,0.3,0.1,0.4
	c0,0.1,0,0.3,0,0.5v0.6c0,0.1,0,0.2,0,0.3c0,0.1,0.1,0.1,0.1,0.2v4.1c0,0.1-0.1,0.3-0.1,0.6v1.1c0,0.2,0,0.4-0.1,0.5
	c0,0.1,0,0.3,0,0.4c0,0.1,0,0.3-0.1,0.4c0,0.1,0,0.2,0,0.3c0,0.2,0,0.3-0.1,0.3v0.3c0,0-0.1,0-0.1,0.1v0.1c0,0,0,0.1-0.1,0.1
	c0,0,0,0,0,0.1c0,0,0,0.1-0.1,0.1l0.1-0.1c0,0,0-0.1,0-0.1c0,0,0.1-0.1,0.1-0.1c0,0,0.1,0,0.1-0.1c0,0,0.1,0,0.1-0.1
	c0,0,0.1,0,0.1-0.1c0,0,0.1-0.1,0.1-0.2c0.1-0.1,0.1-0.2,0.1-0.3C91.9,60.3,91.9,60.2,91.9,60.1z"/>
<path class="st2" d="M115.9,82.4c0.2,0.6,0.3,1.1,0.5,1.4c0.2,0.3,0.4,0.5,0.6,0.7c0.2,0.2,0.4,0.4,0.5,0.5s0.3,0.4,0.3,0.7h-3
	c-0.3,0-0.5-0.1-0.7-0.3c-0.2-0.2-0.3-0.4-0.3-0.7c0,0.3,0,0.5-0.2,0.7c-0.1,0.2-0.3,0.3-0.6,0.3h-3c-0.1-0.3-0.1-0.6,0.1-0.7
	c0.1-0.1,0.2-0.3,0.3-0.4c0.1-0.2,0.2-0.4,0.3-0.7c0.1-0.3,0.1-0.8-0.1-1.5v-0.1l-1.2-6.3c-0.1-0.4-0.3-0.7-0.6-1
	c-0.3-0.3-0.7-0.4-1.1-0.4h-3.9c-0.4,0-0.8,0.1-1.1,0.4c-0.3,0.3-0.5,0.6-0.6,1l-1.2,6.3v0.1c-0.1,0.7-0.2,1.2-0.1,1.5
	c0.1,0.3,0.2,0.5,0.3,0.7c0.2,0.1,0.3,0.3,0.3,0.4c0.1,0.1,0.2,0.4,0.1,0.7h-3c-0.3,0-0.5-0.1-0.6-0.3c-0.2-0.2-0.2-0.4-0.2-0.7
	c0,0.3-0.2,0.5-0.3,0.7c-0.2,0.2-0.4,0.3-0.7,0.3h-3c0-0.3,0.1-0.6,0.3-0.7c0.1-0.1,0.3-0.3,0.5-0.5c0.2-0.2,0.4-0.4,0.6-0.7
	c0.2-0.3,0.4-0.8,0.5-1.4l2.5-13.6c0.1-0.5,0-1-0.2-1.5c-0.2-0.4-0.5-0.8-0.9-1.1c0.6-0.3,1.1-0.4,1.6-0.4l3-16
	c0.1-0.6,0.1-1.1,0.1-1.4c-0.1-0.3-0.2-0.6-0.3-0.7c-0.1-0.2-0.2-0.4-0.3-0.5c-0.1-0.1-0.1-0.4-0.1-0.7h3.8c0.6,0.1,0.8,0.4,0.8,1
	c0-0.3,0.1-0.5,0.2-0.6c0.2-0.2,0.4-0.3,0.6-0.3h3.8c0.1,0.3,0.1,0.6-0.1,0.7c-0.1,0.1-0.2,0.3-0.3,0.5c-0.1,0.1-0.2,0.4-0.3,0.7
	c-0.1,0.3-0.1,0.8,0.1,1.4l3,16c0.3,0,0.6,0,0.8,0.1c0.3,0.1,0.5,0.2,0.8,0.3c-0.8,0.5-1.2,1.4-1.1,2.5L115.9,82.4z M102.4,62.3
	c0.1-0.2,0.1-0.4,0.1-0.6c0-0.2,0.1-0.4,0.1-0.6c0.2-0.9,0.3-1.7,0.4-2.4c0.1-0.8,0.2-1.5,0.3-2.1c0.1-0.3,0.1-0.6,0.1-0.9
	c0-0.3,0.1-0.6,0.1-0.9c0-0.3,0.1-0.5,0.1-0.7c0-0.2,0.1-0.4,0.1-0.6c0-0.2,0.1-0.4,0.1-0.5c0-0.2,0-0.3,0.1-0.4v-0.2l-0.1,0.2
	c0,0.1-0.1,0.2-0.1,0.4c0,0.1-0.1,0.3-0.1,0.5c-0.1,0.2-0.1,0.4-0.2,0.7c0,0.2-0.1,0.4-0.2,0.7c-0.1,0.3-0.2,0.6-0.2,0.9
	c0,0.3-0.1,0.6-0.2,0.9c-0.2,0.6-0.4,1.3-0.6,2.1c-0.1,0.7-0.3,1.5-0.5,2.4c0,0.2,0,0.4-0.1,0.6c0,0.2-0.1,0.4-0.2,0.6
	c0,0.2-0.1,0.4-0.1,0.7c0,0.2-0.1,0.4-0.1,0.6c-0.1,0.4-0.2,0.8-0.3,1.3c-0.1,0.4-0.2,0.9-0.2,1.3c-0.1,0.4-0.2,0.8-0.3,1.3
	c-0.1,0.4-0.2,0.9-0.2,1.3c0,0.1-0.1,0.2-0.1,0.3c0,0.1,0,0.2-0.1,0.3c-0.1,0.3-0.1,0.5-0.1,0.7c-0.1,0.4-0.2,0.8-0.2,1.2
	c-0.1,0.4-0.1,0.8-0.2,1.2c-0.1,0.4-0.1,0.8-0.2,1.1c-0.1,0.9-0.2,1.6-0.3,2.1C99.1,76,99,76.3,99,76.6c0,0.3-0.1,0.6-0.1,0.9
	c-0.1,0.3-0.1,0.5-0.2,0.8c0,0.2,0,0.4-0.1,0.6c0,0.2-0.1,0.4-0.1,0.5s0,0.3-0.1,0.4c0,0.1,0,0.1-0.1,0.2c0,0,0,0,0,0.1v0.1
	c0,0,0.1,0,0.1-0.1c0-0.1,0-0.1,0.1-0.2c0-0.1,0.1-0.2,0.1-0.3c0-0.2,0.1-0.4,0.2-0.6c0.1-0.2,0.1-0.4,0.2-0.6
	c0.1-0.2,0.1-0.5,0.2-0.7c0.1-0.3,0.1-0.5,0.2-0.8c0.1-0.3,0.1-0.6,0.2-0.9c0.1-0.3,0.2-0.6,0.2-1c0.1-0.4,0.2-0.7,0.3-1.1
	c0.1-0.4,0.2-0.8,0.2-1.2c0.1-0.4,0.2-0.8,0.3-1.2c0-0.2,0.1-0.4,0.1-0.6c0-0.2,0.1-0.4,0.1-0.6l0.2-0.7c0-0.1,0.1-0.2,0.1-0.3
	c0-0.1,0-0.2,0.1-0.3c0.1-0.4,0.2-0.8,0.3-1.2c0.1-0.4,0.2-0.9,0.3-1.3c0.1-0.4,0.2-0.8,0.2-1.3s0.2-0.9,0.2-1.3
	c0-0.2,0.1-0.4,0.1-0.7C102.3,62.7,102.3,62.5,102.4,62.3z M107.1,71.9c0.4,0,0.7-0.2,1-0.4c0.3-0.3,0.4-0.7,0.3-1.1l-0.3-1.6
	c-0.1-0.5-0.4-1-0.8-1.5c-0.3-0.4-0.8-0.8-1.2-1.1c0.4-0.3,0.9-0.4,1.5-0.4l-1.8-9.6l-1.8,9.6c0.5,0,1,0.1,1.5,0.4
	c-0.5,0.3-1,0.6-1.3,1.1c-0.3,0.4-0.6,0.9-0.7,1.5l-0.3,1.6c-0.1,0.4,0,0.8,0.2,1.1c0.2,0.3,0.5,0.4,0.9,0.4H107.1z M112.8,79.8
	c0,0.1,0,0.1,0,0.2c0,0,0.1,0,0.1,0.1L112.8,79.8c0-0.1,0-0.2,0-0.4s0-0.3-0.1-0.5c0-0.2-0.1-0.4-0.1-0.6c0-0.3,0-0.5-0.1-0.8
	c0-0.3-0.1-0.6-0.1-0.9c0-0.3-0.1-0.6-0.2-0.9c-0.1-0.6-0.2-1.3-0.3-2.1c-0.1-0.3-0.2-0.7-0.2-1.1c0-0.4-0.1-0.8-0.2-1.2
	c-0.1-0.2-0.1-0.4-0.2-0.6c0-0.2,0-0.4-0.1-0.6c0-0.1,0-0.4-0.1-0.7c0-0.1,0-0.2-0.1-0.3c0-0.1,0-0.2,0-0.3
	c-0.1-0.4-0.2-0.8-0.3-1.3c-0.1-0.4-0.2-0.9-0.2-1.3c-0.1-0.4-0.2-0.9-0.3-1.3c-0.1-0.4-0.2-0.9-0.3-1.3c0-0.2-0.1-0.4-0.1-0.6
	c0-0.2-0.1-0.4-0.1-0.7c-0.1-0.2-0.1-0.4-0.2-0.6c0-0.2-0.1-0.4-0.1-0.6c-0.2-0.9-0.4-1.6-0.6-2.4c-0.2-0.7-0.3-1.4-0.4-2.1
	c-0.1-0.3-0.2-0.6-0.2-0.9c-0.1-0.3-0.2-0.6-0.2-0.9c-0.1-0.2-0.1-0.4-0.2-0.7c0-0.3-0.1-0.5-0.2-0.7c0-0.2-0.1-0.4-0.1-0.5
	c0-0.1-0.1-0.3-0.1-0.4l-0.1-0.2v0.2c0,0.2,0.1,0.5,0.2,1c0,0.2,0,0.4,0.1,0.6c0,0.2,0.1,0.5,0.1,0.7c0,0.3,0.1,0.6,0.1,0.9
	c0,0.3,0.1,0.6,0.2,0.9c0.1,0.6,0.2,1.3,0.3,2.1c0.1,0.7,0.2,1.6,0.4,2.4c0,0.2,0.1,0.4,0.1,0.6c0,0.2,0.1,0.4,0.2,0.6
	c0,0.2,0.1,0.4,0.1,0.6c0,0.2,0.1,0.4,0.1,0.7c0.1,0.4,0.2,0.8,0.2,1.3c0.1,0.4,0.2,0.9,0.3,1.3c0.1,0.4,0.2,0.9,0.3,1.3
	c0.1,0.4,0.2,0.8,0.3,1.2c0,0.1,0.1,0.2,0.1,0.3c0,0.1,0,0.2,0.1,0.3l0.2,0.7c0,0.2,0.1,0.4,0.1,0.6c0,0.2,0.1,0.4,0.1,0.6
	c0.1,0.4,0.2,0.8,0.3,1.2c0.1,0.4,0.2,0.8,0.2,1.2c0.1,0.4,0.2,0.7,0.2,1.1c0.1,0.3,0.2,0.7,0.3,1c0.1,0.3,0.2,0.6,0.2,0.9
	c0.1,0.3,0.2,0.6,0.2,0.8c0.1,0.5,0.2,1,0.3,1.3c0.1,0.2,0.1,0.4,0.1,0.6C112.8,79.6,112.8,79.7,112.8,79.8z"/>
<path class="st2" d="M139.5,88.1c0.4,0.1,0.7,0.2,0.8,0.4c0.2,0.2,0.3,0.4,0.4,0.6c0.1,0.2,0.1,0.5,0.1,0.7c-1.2,0-2.3-0.1-3.4-0.4
	c-1.1-0.3-2-0.8-2.8-1.5c-0.8-0.7-1.4-1.6-1.9-2.6c-0.4-1.1-0.7-2.4-0.7-4v-7.7c0-0.5,0-1.1-0.1-1.8c0-0.7-0.2-1.4-0.4-2
	c-0.2-0.6-0.6-1.2-1.1-1.6c-0.4-0.5-1.1-0.7-2-0.7h-2.3c-0.3,0.1-0.6,0.3-0.9,0.6c-0.2,0.3-0.3,0.6-0.3,1v13.4
	c0,0.7,0.1,1.2,0.2,1.5c0.2,0.3,0.3,0.5,0.4,0.7c0.2,0.1,0.3,0.3,0.4,0.4c0.1,0.1,0.2,0.4,0.2,0.7h-3c-0.2,0-0.4-0.1-0.6-0.3
	c-0.2-0.2-0.3-0.4-0.3-0.6c0,0.2-0.1,0.4-0.3,0.6c-0.2,0.2-0.4,0.3-0.6,0.3h-2.9c0-0.3,0.1-0.6,0.2-0.7c0.2-0.1,0.3-0.3,0.5-0.4
	c0.1-0.2,0.3-0.4,0.4-0.7c0.2-0.3,0.2-0.8,0.2-1.4V68.8c-0.1-1.2-0.6-2-1.6-2.5c0.4-0.3,0.9-0.4,1.6-0.4v-16c0-0.6-0.1-1.1-0.2-1.4
	c-0.1-0.3-0.2-0.5-0.4-0.7c-0.2-0.2-0.3-0.4-0.5-0.5c-0.1-0.1-0.2-0.4-0.2-0.7h3c0.2,0,0.4,0.1,0.6,0.3c0.2,0.1,0.3,0.4,0.3,0.6
	c0-0.6,0.3-0.9,0.9-0.9h5.3c1.2,0,2.3,0.2,3.4,0.7c1.1,0.4,2,1.1,2.8,1.9c0.8,0.7,1.4,1.6,1.9,2.7c0.4,1,0.7,2.1,0.7,3.3v3.6
	c0,1.6-0.4,3-1.1,4.3c-0.8,1.3-1.8,2.4-3,3.1c1.3,0.7,2.3,1.8,3,3.1c0.8,1.3,1.1,2.7,1.1,4.3v7.5c0,0.8,0,1.6,0,2.4
	c0,0.8,0.1,1.5,0.3,2.2c0.1,0.6,0.4,1.2,0.7,1.6S138.9,88,139.5,88.1z M134.4,57.7c0,0.1-0.1,0.2-0.1,0.3v1.3c0,0.1-0.1,0.3-0.1,0.4
	c0,0.1,0,0.2,0,0.3c0,0.1,0,0.1-0.1,0.2c0,0,0,0.1,0,0.2v0.3c0,0.1-0.1,0.2-0.1,0.3c0,0.1,0,0.1-0.1,0.2c0,0.1,0,0.1-0.1,0.2v0.1
	l-0.1,0.1c0,0,0,0,0.1-0.1v-0.1l0.1-0.1c0,0,0.1-0.1,0.1-0.1c0,0,0-0.1,0.1-0.1c0-0.1,0.1-0.1,0.1-0.2c0-0.1,0.1-0.2,0.1-0.3
	c0-0.1,0.1-0.1,0.1-0.1c0,0,0-0.1,0.1-0.2c0-0.1,0.1-0.1,0.1-0.2c0-0.1,0-0.1,0.1-0.2c0-0.1,0.1-0.1,0.1-0.2c0,0,0-0.1,0.1-0.2
	c0-0.1,0-0.1,0-0.2c0-0.1,0.1-0.1,0.1-0.2c0-0.1,0.1-0.3,0.1-0.4c0-0.1,0.1-0.3,0.1-0.4c0-0.1,0.1-0.3,0.1-0.5c0-0.1,0-0.1,0-0.2
	c0-0.1,0.1-0.1,0.1-0.2v-2c0-0.2,0-0.4-0.1-0.5v-0.2c0-0.1,0-0.1-0.1-0.1c0,0,0-0.1,0-0.2c0-0.2,0-0.5-0.1-0.8
	c0-0.1-0.1-0.1-0.1-0.2c0-0.1,0-0.1-0.1-0.2c0,0,0-0.1-0.1-0.1c0,0,0-0.1,0-0.1c0,0,0-0.1-0.1-0.1c0,0,0-0.1,0-0.1
	c0-0.1-0.1-0.1-0.1-0.2c0,0,0-0.1-0.1-0.2c0-0.1-0.1-0.1-0.1-0.2c0,0,0-0.1-0.1-0.2c0,0-0.1-0.1-0.1-0.1c0,0,0-0.1-0.1-0.1
	c-0.1-0.1-0.1-0.2-0.1-0.2c0,0-0.1-0.1-0.1-0.1c0,0,0-0.1-0.1-0.1c0,0-0.1-0.1-0.1-0.1c0,0-0.1-0.1-0.1-0.1H134c0,0,0,0,0.1,0.1v0.1
	c0,0,0.1,0.1,0.1,0.2c0,0,0,0.1,0,0.1c0,0,0.1,0,0.1,0.1c0,0.1,0,0.2,0.1,0.3v0.3c0,0.1,0,0.1,0,0.2c0,0,0.1,0.1,0.1,0.2
	c0,0.3,0,0.6,0.1,0.8v0.9c0,0.2,0.1,0.5,0.1,0.9V57.7z M122.8,63.5c0-0.2,0-0.4-0.1-0.6c0-0.2,0-0.4,0-0.7V61c0-0.8-0.1-1.6-0.1-2.4
	s0-1.5-0.1-2.1c0-0.3-0.1-0.6-0.1-0.9s0-0.6-0.1-0.8c0-0.3,0-0.6-0.1-0.8c0-0.2,0-0.4,0-0.6c0-0.2,0-0.4-0.1-0.5c0-0.1,0-0.3,0-0.4
	v-0.3c0,0-0.1,0-0.1,0.1v0.2c0,0.1,0,0.2-0.1,0.4c0,0.1,0,0.3,0,0.5c0,0.2,0,0.4-0.1,0.6c0,0.2,0,0.5,0,0.8c0,0.3-0.1,0.5-0.1,0.8
	s0,0.6-0.1,0.9c0,0.7-0.1,1.4-0.1,2.1s0,1.5-0.1,2.4v1.2c0,0.2,0,0.4-0.1,0.7c0,0.2,0,0.4,0,0.6v5.2c0,0.3,0,0.5,0.1,0.7v1.9
	c0,0.4,0,0.8,0,1.2c0,0.4,0.1,0.7,0.1,1.1c0,0.4,0,0.8,0,1.1c0,0.3,0.1,0.7,0.1,1c0,0.3,0.1,0.7,0.1,1c0,0.3,0,0.5,0.1,0.8
	c0,0.3,0,0.5,0,0.7c0,0.2,0.1,0.4,0.1,0.6c0,0.2,0,0.4,0,0.6c0,0.1,0.1,0.3,0.1,0.3v0.3c0,0,0,0.1,0.1,0.1v-0.3c0-0.1,0-0.2,0-0.3
	c0-0.2,0.1-0.4,0.1-0.6c0-0.2,0-0.4,0-0.6c0-0.2,0.1-0.5,0.1-0.7c0-0.3,0.1-0.6,0.1-0.8c0-0.3,0-0.6,0.1-1c0-0.3,0-0.7,0-1
	c0-0.3,0.1-0.7,0.1-1.1c0-0.4,0-0.7,0-1.1c0-0.4,0.1-0.8,0.1-1.2V70c0-0.3,0-0.5,0.1-0.6V63.5z M132,55.3c0-0.5,0-1.1-0.1-1.8
	c0-0.7-0.2-1.4-0.4-2c-0.2-0.6-0.6-1.2-1.1-1.6c-0.4-0.5-1.1-0.7-2-0.7h-2c-0.4,0-0.8,0.2-1.1,0.5c-0.3,0.3-0.4,0.7-0.4,1.1v12.6
	c0,0.4,0.2,0.8,0.4,1.1c0.3,0.3,0.7,0.4,1.1,0.4h2c0.9,0,1.6-0.2,2-0.7c0.5-0.4,0.8-1,1.1-1.6c0.2-0.7,0.4-1.3,0.4-2
	c0-0.7,0.1-1.3,0.1-1.8V55.3z M135.8,86C135.8,86,135.8,86,135.8,86l-0.1-0.1c0-0.1-0.1-0.1-0.1-0.2c0-0.1,0-0.1-0.1-0.2
	c0-0.1-0.1-0.2-0.1-0.3c0-0.1-0.1-0.3-0.1-0.5c-0.1-0.4-0.1-0.7-0.1-1.1c0-0.2-0.1-0.4-0.1-0.6c0-0.2,0-0.5,0-0.7v-3
	c0-0.3,0-0.5,0-0.8c0-0.3,0-0.5,0.1-0.8c0-0.3,0-0.5,0-0.8c0-0.3,0-0.5-0.1-0.8v-0.8c0-0.4,0-0.6-0.1-0.8c0-0.3,0-0.5-0.1-0.7
	c0-0.3,0-0.5-0.1-0.7c-0.1-0.5-0.1-1-0.2-1.3c0-0.2-0.1-0.4-0.1-0.5c0-0.2-0.1-0.4-0.2-0.6c-0.1-0.2-0.1-0.3-0.2-0.4
	c0-0.1-0.1-0.2-0.2-0.3c-0.1-0.1-0.1-0.2-0.2-0.3c0-0.1-0.1-0.1-0.1-0.2c0,0-0.1,0-0.1-0.1c0,0-0.1,0-0.1-0.1l0.1,0.1
	c0,0,0,0.1,0.1,0.1c0,0,0,0.1,0,0.1c0,0,0.1,0,0.1,0.1c0,0,0.1,0.1,0.1,0.1c0,0,0,0.1,0.1,0.2c0,0.1,0.1,0.4,0.2,0.8
	c0,0.2,0.1,0.4,0.1,0.6c0,0.2,0.1,0.4,0.1,0.6c0,0.2,0,0.4,0,0.6c0,0.2,0.1,0.4,0.1,0.7v7c0,0.1,0,0.3,0,0.4c0,0.1,0.1,0.2,0.1,0.4
	c0,0.3,0,0.5,0,0.8c0,0.2,0.1,0.4,0.1,0.7c0,0.2,0.1,0.4,0.1,0.7c0,0.2,0.1,0.4,0.1,0.6c0.1,0.2,0.1,0.4,0.2,0.6
	c0,0.1,0.1,0.3,0.2,0.5c0.1,0.2,0.1,0.3,0.2,0.4c0,0.1,0.1,0.2,0.2,0.3l0.1,0.1c0,0,0.1,0.1,0.1,0.1c0,0,0,0,0.1,0.1L135.8,86
	L135.8,86z"/>
<path class="st2" d="M156.3,58.7c0,1.6-0.4,3-1.1,4.3c-0.8,1.3-1.8,2.4-3,3.1c1.3,0.7,2.3,1.8,3,3.1c0.8,1.3,1.1,2.7,1.1,4.3v3.6
	c0,1.2-0.3,2.3-0.7,3.4c-0.4,1-1.1,1.9-1.9,2.7c-0.8,0.7-1.7,1.3-2.8,1.8s-2.2,0.7-3.4,0.7h-5.3c-0.2,0-0.4-0.1-0.6-0.3
	c-0.2-0.2-0.3-0.4-0.3-0.6c0,0.2-0.1,0.4-0.3,0.6c-0.1,0.2-0.4,0.3-0.6,0.3h-2.9c0-0.3,0.1-0.6,0.2-0.7c0.1-0.1,0.3-0.3,0.4-0.4
	c0.1-0.2,0.3-0.4,0.4-0.7c0.2-0.3,0.2-0.8,0.2-1.4V68.8c-0.1-1.2-0.6-2-1.6-2.5c0.4-0.3,0.9-0.4,1.6-0.4v-16c0-0.6-0.1-1.1-0.2-1.4
	c-0.1-0.3-0.2-0.5-0.4-0.7c-0.1-0.2-0.3-0.4-0.4-0.5c-0.1-0.1-0.2-0.4-0.2-0.7h3c0.2,0,0.4,0.1,0.6,0.3c0.2,0.1,0.3,0.4,0.3,0.6
	c0-0.6,0.3-0.9,0.9-0.9h5.3c1.2,0,2.3,0.2,3.4,0.7c1.1,0.4,2,1.1,2.8,1.9c0.8,0.7,1.4,1.6,1.9,2.7c0.4,1,0.7,2.1,0.7,3.3V58.7z
	 M141.8,63.5c0-0.2,0-0.4-0.1-0.6c0-0.2,0-0.4,0-0.7V61c0-0.8-0.1-1.6-0.1-2.4s0-1.5-0.1-2.1c0-0.3-0.1-0.6-0.1-0.9s0-0.6-0.1-0.8
	c0-0.3,0-0.6-0.1-0.8c0-0.2,0-0.4,0-0.6c0-0.2,0-0.4-0.1-0.5c0-0.1,0-0.3,0-0.4v-0.3c0,0-0.1,0-0.1,0.1v0.2c0,0.1,0,0.2-0.1,0.4
	c0,0.1,0,0.3,0,0.5c0,0.2,0,0.4-0.1,0.6c0,0.2,0,0.5,0,0.8c0,0.3-0.1,0.5-0.1,0.8s0,0.6-0.1,0.9c0,0.7-0.1,1.4-0.1,2.1
	s0,1.5-0.1,2.4v1.2c0,0.2,0,0.4-0.1,0.7c0,0.2,0,0.4,0,0.6v5.2c0,0.3,0,0.5,0.1,0.7v1.9c0,0.4,0,0.8,0,1.2c0,0.4,0.1,0.7,0.1,1.1
	c0,0.4,0,0.8,0,1.1c0,0.3,0.1,0.7,0.1,1c0,0.3,0.1,0.7,0.1,1c0,0.3,0,0.5,0.1,0.8c0,0.3,0,0.5,0,0.7c0,0.2,0.1,0.4,0.1,0.6
	c0,0.2,0,0.4,0,0.6c0,0.1,0.1,0.3,0.1,0.3v0.3c0,0,0,0.1,0.1,0.1v-0.3c0-0.1,0-0.2,0-0.3c0-0.2,0.1-0.4,0.1-0.6c0-0.2,0-0.4,0-0.6
	c0-0.2,0.1-0.5,0.1-0.7c0-0.3,0.1-0.6,0.1-0.8c0-0.3,0-0.6,0.1-1c0-0.3,0-0.7,0-1c0-0.3,0.1-0.7,0.1-1.1c0-0.4,0-0.7,0-1.1
	c0-0.4,0.1-0.8,0.1-1.2V70c0-0.3,0-0.5,0.1-0.6V63.5z M153.4,76.5c0,0.1-0.1,0.2-0.1,0.3v1.3c0,0.1-0.1,0.3-0.1,0.4
	c0,0.1,0,0.2,0,0.3c0,0.1,0,0.1-0.1,0.2c0,0,0,0.1,0,0.2v0.3c0,0.1-0.1,0.2-0.1,0.3c0,0.1,0,0.1-0.1,0.2c0,0.1,0,0.1-0.1,0.2v0.1
	l-0.1,0.1c0,0,0,0,0.1-0.1v-0.1l0.1-0.1c0,0,0.1-0.1,0.1-0.1c0,0,0-0.1,0.1-0.1c0-0.1,0.1-0.1,0.1-0.2c0-0.1,0.1-0.2,0.1-0.3
	c0-0.1,0.1-0.1,0.1-0.1c0,0,0-0.1,0.1-0.2c0-0.1,0.1-0.1,0.1-0.2s0-0.1,0.1-0.2c0-0.1,0.1-0.1,0.1-0.2c0-0.1,0-0.1,0.1-0.2
	c0-0.1,0-0.1,0-0.2c0-0.1,0.1-0.1,0.1-0.2c0-0.1,0.1-0.3,0.1-0.4c0-0.1,0.1-0.3,0.1-0.4c0-0.1,0.1-0.3,0.1-0.5c0-0.1,0-0.1,0-0.2
	c0-0.1,0.1-0.1,0.1-0.2v-2c0-0.2,0-0.4-0.1-0.5v-0.2c0-0.1,0-0.1-0.1-0.1c0,0,0-0.1,0-0.1c0-0.2,0-0.3-0.1-0.4c0-0.1,0-0.3-0.1-0.4
	c0-0.1-0.1-0.1-0.1-0.2c0-0.1,0-0.1-0.1-0.2c0,0,0-0.1-0.1-0.1c0,0,0-0.1,0-0.1s0-0.1-0.1-0.1c0,0,0-0.1,0-0.1
	c0-0.1-0.1-0.1-0.1-0.2c0,0,0-0.1-0.1-0.2c0-0.1-0.1-0.1-0.1-0.2c0,0,0-0.1-0.1-0.2c0,0-0.1-0.1-0.1-0.1c0,0,0-0.1-0.1-0.1
	c-0.1-0.1-0.1-0.2-0.1-0.2c0,0-0.1-0.1-0.1-0.1c0,0,0-0.1-0.1-0.1c0,0-0.1-0.1-0.1-0.1l-0.1-0.1c0,0,0,0,0.1,0.1v0.1
	c0,0,0.1,0.1,0.1,0.2c0,0,0,0.1,0,0.1c0,0,0.1,0,0.1,0.1c0,0.1,0,0.2,0.1,0.3v0.3c0,0.1,0,0.1,0,0.2c0,0,0.1,0.1,0.1,0.2
	c0,0.3,0,0.6,0.1,0.8v0.9c0,0.2,0.1,0.5,0.1,0.9V76.5z M151.1,73.6c0-0.5,0-1.1-0.1-1.8c0-0.7-0.2-1.4-0.4-2
	c-0.2-0.6-0.6-1.2-1.1-1.6c-0.4-0.5-1.1-0.7-2-0.7h-2c-0.4,0-0.8,0.2-1.1,0.5c-0.3,0.3-0.4,0.7-0.4,1.1v12.6c0,0.4,0.2,0.8,0.4,1.1
	c0.3,0.3,0.7,0.4,1.1,0.4h2c0.9,0,1.6-0.2,2-0.7c0.5-0.4,0.8-1,1.1-1.6c0.2-0.7,0.4-1.3,0.4-2c0-0.7,0.1-1.3,0.1-1.8V73.6z
	 M151.1,55.3c0-0.5,0-1.1-0.1-1.8c0-0.7-0.2-1.4-0.4-2c-0.2-0.6-0.6-1.2-1.1-1.6c-0.4-0.5-1.1-0.7-2-0.7h-2c-0.4,0-0.8,0.2-1.1,0.5
	c-0.3,0.3-0.4,0.7-0.4,1.1v12.6c0,0.4,0.2,0.8,0.4,1.1c0.3,0.3,0.7,0.4,1.1,0.4h2c0.9,0,1.6-0.2,2-0.7c0.5-0.4,0.8-1,1.1-1.6
	c0.2-0.7,0.4-1.3,0.4-2c0-0.7,0.1-1.3,0.1-1.8V55.3z M153.5,60.8c0-0.1,0.1-0.1,0.1-0.1c0,0,0-0.1,0.1-0.2c0-0.1,0.1-0.1,0.1-0.2
	c0-0.1,0-0.1,0.1-0.2c0-0.1,0.1-0.1,0.1-0.2c0,0,0-0.1,0.1-0.2c0-0.1,0-0.1,0-0.2c0-0.1,0.1-0.1,0.1-0.2c0-0.1,0.1-0.3,0.1-0.4
	c0-0.1,0.1-0.3,0.1-0.4c0-0.1,0.1-0.3,0.1-0.5c0-0.1,0-0.1,0-0.2c0-0.1,0.1-0.1,0.1-0.2v-2c0-0.2,0-0.4-0.1-0.5v-0.2
	c0-0.1,0-0.1-0.1-0.1c0,0,0-0.1,0-0.2c0-0.2,0-0.5-0.1-0.8c0-0.1-0.1-0.1-0.1-0.2c0-0.1,0-0.1-0.1-0.2c0,0,0-0.1-0.1-0.1
	c0,0,0-0.1,0-0.1c0,0,0-0.1-0.1-0.1c0,0,0-0.1,0-0.1c0-0.1-0.1-0.1-0.1-0.2c0,0,0-0.1-0.1-0.2c0-0.1-0.1-0.1-0.1-0.2
	c0,0,0-0.1-0.1-0.2c0,0-0.1-0.1-0.1-0.1c0,0,0-0.1-0.1-0.1c-0.1-0.1-0.1-0.2-0.1-0.2c0,0-0.1-0.1-0.1-0.1c0,0,0-0.1-0.1-0.1
	c0,0-0.1-0.1-0.1-0.1c0,0-0.1-0.1-0.1-0.1H153c0,0,0,0,0.1,0.1v0.1c0,0,0.1,0.1,0.1,0.2c0,0,0,0.1,0,0.1c0,0,0.1,0,0.1,0.1
	c0,0.1,0,0.2,0.1,0.3v0.3c0,0.1,0,0.1,0,0.2c0,0,0.1,0.1,0.1,0.2c0,0.3,0,0.6,0.1,0.8v0.9c0,0.2,0.1,0.5,0.1,0.9v2.1
	c0,0.1-0.1,0.2-0.1,0.3v1.3c0,0.1-0.1,0.3-0.1,0.4c0,0.1,0,0.2,0,0.3c0,0.1,0,0.1-0.1,0.2c0,0,0,0.1,0,0.2v0.3
	c0,0.1-0.1,0.2-0.1,0.3c0,0.1,0,0.1-0.1,0.2c0,0.1,0,0.1-0.1,0.2v0.1l-0.1,0.1c0,0,0,0,0.1-0.1v-0.1l0.1-0.1c0,0,0.1-0.1,0.1-0.1
	c0,0,0-0.1,0.1-0.1c0-0.1,0.1-0.1,0.1-0.2C153.4,61,153.5,60.9,153.5,60.8z"/>
<path class="st2" d="M175.5,82.4c0,0.7,0.1,1.2,0.2,1.5c0.2,0.3,0.3,0.5,0.5,0.7c0.1,0.1,0.3,0.3,0.4,0.4c0.1,0.1,0.2,0.4,0.2,0.7
	h-15.3c-0.2,0-0.4-0.1-0.6-0.3c-0.2-0.2-0.3-0.4-0.3-0.6c0,0.2-0.1,0.4-0.3,0.6c-0.1,0.2-0.4,0.3-0.6,0.3h-2.9
	c0-0.3,0.1-0.6,0.2-0.7c0.1-0.1,0.3-0.3,0.4-0.4c0.2-0.2,0.3-0.4,0.4-0.7c0.2-0.3,0.2-0.8,0.2-1.4V68.8c-0.1-1.2-0.6-2-1.6-2.5
	c0.4-0.3,0.9-0.4,1.6-0.4v-16c0-0.6-0.1-1.1-0.2-1.4c-0.1-0.3-0.2-0.5-0.4-0.7c-0.1-0.2-0.3-0.4-0.4-0.5c-0.1-0.1-0.2-0.4-0.2-0.7h3
	c0.2,0,0.4,0.1,0.6,0.3c0.2,0.1,0.3,0.4,0.3,0.6c0-0.6,0.3-0.9,0.9-0.9h15.2c0,0.3-0.1,0.6-0.2,0.7c-0.1,0.1-0.2,0.3-0.4,0.5
	c-0.2,0.1-0.3,0.4-0.5,0.7c-0.1,0.3-0.2,0.8-0.2,1.5v7.5c-1.3,0-2.3-0.2-3-0.7c-0.7-0.5-1.2-1.1-1.5-1.7c-0.4-0.7-0.6-1.6-0.7-2.5
	v-1.7c0-0.4-0.1-0.8-0.4-1.1s-0.7-0.5-1.1-0.5h-4.1c-0.4,0-0.8,0.2-1.1,0.5s-0.4,0.7-0.4,1.1v12.6c0,0.4,0.1,0.8,0.4,1.1
	c0.3,0.3,0.7,0.4,1.1,0.4h0.4c0.4,0,0.8-0.1,1-0.4c0.3-0.3,0.4-0.7,0.4-1.1v-0.1c0-0.6,0.2-1,0.4-1.5c0.2-0.4,0.6-0.7,1-1
	s1.1-0.4,2-0.4v11.6c-0.9,0-1.5-0.1-2-0.4c-0.4-0.3-0.8-0.6-1-1c-0.3-0.4-0.4-0.9-0.4-1.5c0-0.4-0.2-0.8-0.4-1.1
	c-0.3-0.3-0.6-0.5-1-0.5h-0.4c-0.4,0-0.8,0.2-1.1,0.5c-0.3,0.3-0.4,0.7-0.4,1.1v12.6c0,0.4,0.1,0.8,0.4,1.1c0.3,0.3,0.7,0.4,1.1,0.4
	h4.1c0.4,0,0.8-0.1,1.1-0.4c0.3-0.3,0.4-0.7,0.4-1.1v-1.8c0-0.9,0.3-1.8,0.7-2.5c0.3-0.6,0.8-1.2,1.5-1.7c0.7-0.5,1.7-0.8,3-0.8
	V82.4z M161,63.5c0-0.2,0-0.4-0.1-0.6c0-0.2,0-0.4,0-0.7V61c0-0.8-0.1-1.6-0.1-2.4s0-1.5-0.1-2.1c0-0.3-0.1-0.6-0.1-0.9
	s0-0.6-0.1-0.8c0-0.3,0-0.6-0.1-0.8c0-0.2,0-0.4,0-0.6c0-0.2,0-0.4-0.1-0.5c0-0.1,0-0.3,0-0.4v-0.3c0,0-0.1,0-0.1,0.1v0.2
	c0,0.1,0,0.2-0.1,0.4c0,0.1,0,0.3,0,0.5c0,0.2,0,0.4-0.1,0.6c0,0.2,0,0.5,0,0.8c0,0.3-0.1,0.5-0.1,0.8s0,0.6-0.1,0.9
	c0,0.7-0.1,1.4-0.1,2.1s0,1.5-0.1,2.4v1.2c0,0.2,0,0.4-0.1,0.7c0,0.2,0,0.4,0,0.6v5.2c0,0.3,0,0.5,0.1,0.7v1.9c0,0.4,0,0.8,0,1.2
	c0,0.4,0.1,0.7,0.1,1.1c0,0.4,0,0.8,0,1.1c0,0.3,0.1,0.7,0.1,1c0,0.3,0.1,0.7,0.1,1c0,0.3,0,0.5,0.1,0.8c0,0.3,0,0.5,0,0.7
	c0,0.2,0.1,0.4,0.1,0.6c0,0.2,0,0.4,0,0.6c0,0.1,0.1,0.3,0.1,0.3v0.3c0,0,0,0.1,0.1,0.1v-0.3c0-0.1,0-0.2,0-0.3
	c0-0.2,0.1-0.4,0.1-0.6c0-0.2,0-0.4,0-0.6c0-0.2,0.1-0.5,0.1-0.7c0-0.3,0.1-0.6,0.1-0.8c0-0.3,0-0.6,0.1-1c0-0.3,0-0.7,0-1
	c0-0.3,0.1-0.7,0.1-1.1c0-0.4,0-0.7,0-1.1c0-0.4,0.1-0.8,0.1-1.2V70c0-0.3,0-0.5,0.1-0.6V63.5z"/>
<path class="st2" d="M198.1,88.1c0.4,0.1,0.7,0.2,0.8,0.4c0.2,0.2,0.3,0.4,0.4,0.6c0.1,0.2,0.1,0.5,0.1,0.7c-1.2,0-2.3-0.1-3.4-0.4
	c-1.1-0.3-2-0.8-2.8-1.5c-0.8-0.7-1.4-1.6-1.9-2.6c-0.4-1.1-0.7-2.4-0.7-4v-7.7c0-0.5,0-1.1-0.1-1.8c0-0.7-0.2-1.4-0.4-2
	s-0.6-1.2-1.1-1.6c-0.5-0.5-1.1-0.7-2-0.7h-2.3c-0.3,0.1-0.6,0.3-0.9,0.6c-0.2,0.3-0.3,0.6-0.3,1v13.4c0,0.7,0.1,1.2,0.2,1.5
	c0.1,0.3,0.3,0.5,0.4,0.7c0.1,0.1,0.3,0.3,0.4,0.4c0.1,0.1,0.2,0.4,0.2,0.7h-3c-0.2,0-0.4-0.1-0.6-0.3c-0.2-0.2-0.3-0.4-0.3-0.6
	c0,0.2-0.1,0.4-0.3,0.6c-0.1,0.2-0.4,0.3-0.6,0.3h-2.9c0-0.3,0.1-0.6,0.2-0.7c0.2-0.1,0.3-0.3,0.4-0.4c0.2-0.2,0.3-0.4,0.4-0.7
	c0.1-0.3,0.2-0.8,0.2-1.4V68.8c-0.1-1.2-0.6-2-1.6-2.5c0.4-0.3,0.9-0.4,1.6-0.4v-16c0-0.6-0.1-1.1-0.2-1.4c-0.1-0.3-0.2-0.5-0.4-0.7
	c-0.1-0.2-0.3-0.4-0.4-0.5c-0.1-0.1-0.2-0.4-0.2-0.7h3c0.2,0,0.4,0.1,0.6,0.3c0.2,0.1,0.3,0.4,0.3,0.6c0-0.6,0.3-0.9,0.9-0.9h5.3
	c1.2,0,2.3,0.2,3.4,0.7c1.1,0.4,2,1.1,2.8,1.9c0.8,0.7,1.4,1.6,1.9,2.7c0.4,1,0.7,2.1,0.7,3.3v3.6c0,1.6-0.4,3-1.1,4.3
	c-0.8,1.3-1.8,2.4-3,3.1c1.3,0.7,2.3,1.8,3,3.1c0.8,1.3,1.1,2.7,1.1,4.3v7.5c0,0.8,0,1.6,0,2.4c0,0.8,0.1,1.5,0.3,2.2
	c0.2,0.6,0.4,1.2,0.7,1.6S197.6,88,198.1,88.1z M193,57.7c0,0.1-0.1,0.2-0.1,0.3v1.3c0,0.1-0.1,0.3-0.1,0.4c0,0.1,0,0.2,0,0.3
	c0,0.1,0,0.1-0.1,0.2c0,0,0,0.1,0,0.2v0.3c0,0.1-0.1,0.2-0.1,0.3c0,0.1,0,0.1-0.1,0.2c0,0.1,0,0.1-0.1,0.2v0.1l-0.1,0.1
	c0,0,0,0,0.1-0.1v-0.1l0.1-0.1c0,0,0.1-0.1,0.1-0.1c0,0,0-0.1,0.1-0.1c0-0.1,0.1-0.1,0.1-0.2c0-0.1,0.1-0.2,0.1-0.3
	c0-0.1,0.1-0.1,0.1-0.1c0,0,0-0.1,0.1-0.2c0-0.1,0.1-0.1,0.1-0.2c0-0.1,0-0.1,0.1-0.2c0-0.1,0.1-0.1,0.1-0.2c0,0,0-0.1,0.1-0.2
	c0-0.1,0-0.1,0-0.2c0-0.1,0.1-0.1,0.1-0.2c0-0.1,0.1-0.3,0.1-0.4c0-0.1,0.1-0.3,0.1-0.4c0-0.1,0.1-0.3,0.1-0.5c0-0.1,0-0.1,0-0.2
	c0-0.1,0.1-0.1,0.1-0.2v-2c0-0.2,0-0.4-0.1-0.5v-0.2c0-0.1,0-0.1-0.1-0.1c0,0,0-0.1,0-0.2c0-0.2,0-0.5-0.1-0.8
	c0-0.1-0.1-0.1-0.1-0.2c0-0.1,0-0.1-0.1-0.2c0,0,0-0.1-0.1-0.1c0,0,0-0.1,0-0.1c0,0,0-0.1-0.1-0.1c0,0,0-0.1,0-0.1
	c0-0.1-0.1-0.1-0.1-0.2c0,0,0-0.1-0.1-0.2c0-0.1-0.1-0.1-0.1-0.2c0,0,0-0.1-0.1-0.2c0,0-0.1-0.1-0.1-0.1c0,0,0-0.1-0.1-0.1
	c-0.1-0.1-0.1-0.2-0.1-0.2c0,0-0.1-0.1-0.1-0.1c0,0,0-0.1-0.1-0.1c0,0-0.1-0.1-0.1-0.1c0,0-0.1-0.1-0.1-0.1h-0.1c0,0,0,0,0.1,0.1
	v0.1c0,0,0.1,0.1,0.1,0.2c0,0,0,0.1,0,0.1c0,0,0.1,0,0.1,0.1c0,0.1,0,0.2,0.1,0.3v0.3c0,0.1,0,0.1,0,0.2c0,0,0.1,0.1,0.1,0.2
	c0,0.3,0,0.6,0.1,0.8v0.9c0,0.2,0.1,0.5,0.1,0.9V57.7z M181.4,63.5c0-0.2,0-0.4-0.1-0.6c0-0.2,0-0.4,0-0.7V61c0-0.8-0.1-1.6-0.1-2.4
	s0-1.5-0.1-2.1c0-0.3-0.1-0.6-0.1-0.9s0-0.6-0.1-0.8c0-0.3,0-0.6-0.1-0.8c0-0.2,0-0.4,0-0.6c0-0.2,0-0.4-0.1-0.5c0-0.1,0-0.3,0-0.4
	v-0.3c0,0-0.1,0-0.1,0.1v0.2c0,0.1,0,0.2-0.1,0.4c0,0.1,0,0.3,0,0.5c0,0.2,0,0.4-0.1,0.6c0,0.2,0,0.5,0,0.8c0,0.3-0.1,0.5-0.1,0.8
	s0,0.6-0.1,0.9c0,0.7-0.1,1.4-0.1,2.1s0,1.5-0.1,2.4v1.2c0,0.2,0,0.4-0.1,0.7c0,0.2,0,0.4,0,0.6v5.2c0,0.3,0,0.5,0.1,0.7v1.9
	c0,0.4,0,0.8,0,1.2c0,0.4,0.1,0.7,0.1,1.1c0,0.4,0,0.8,0,1.1c0,0.3,0.1,0.7,0.1,1c0,0.3,0.1,0.7,0.1,1c0,0.3,0,0.5,0.1,0.8
	c0,0.3,0,0.5,0,0.7c0,0.2,0.1,0.4,0.1,0.6c0,0.2,0,0.4,0,0.6c0,0.1,0.1,0.3,0.1,0.3v0.3c0,0,0,0.1,0.1,0.1v-0.3c0-0.1,0-0.2,0-0.3
	c0-0.2,0.1-0.4,0.1-0.6c0-0.2,0-0.4,0-0.6c0-0.2,0.1-0.5,0.1-0.7c0-0.3,0.1-0.6,0.1-0.8c0-0.3,0-0.6,0.1-1c0-0.3,0-0.7,0-1
	c0-0.3,0.1-0.7,0.1-1.1c0-0.4,0-0.7,0-1.1c0-0.4,0.1-0.8,0.1-1.2V70c0-0.3,0-0.5,0.1-0.6V63.5z M190.7,55.3c0-0.5,0-1.1-0.1-1.8
	c0-0.7-0.2-1.4-0.4-2c-0.2-0.6-0.6-1.2-1.1-1.6c-0.5-0.5-1.1-0.7-2-0.7h-2c-0.4,0-0.8,0.2-1.1,0.5s-0.4,0.7-0.4,1.1v12.6
	c0,0.4,0.1,0.8,0.4,1.1c0.3,0.3,0.7,0.4,1.1,0.4h2c0.9,0,1.6-0.2,2-0.7c0.5-0.4,0.8-1,1.1-1.6c0.2-0.7,0.4-1.3,0.4-2
	c0-0.7,0.1-1.3,0.1-1.8V55.3z M194.5,86C194.5,86,194.5,86,194.5,86l-0.1-0.1c0-0.1-0.1-0.1-0.1-0.2c0-0.1,0-0.1-0.1-0.2
	c0-0.1-0.1-0.2-0.1-0.3c0-0.1-0.1-0.3-0.1-0.5c-0.1-0.4-0.1-0.7-0.1-1.1c0-0.2-0.1-0.4-0.1-0.6c0-0.2,0-0.5,0-0.7v-3
	c0-0.3,0-0.5,0-0.8c0-0.3,0-0.5,0.1-0.8c0-0.3,0-0.5,0-0.8c0-0.3,0-0.5-0.1-0.8v-0.8c0-0.4,0-0.6-0.1-0.8c0-0.3,0-0.5-0.1-0.7
	c0-0.3,0-0.5-0.1-0.7c-0.1-0.5-0.1-1-0.2-1.3c0-0.2-0.1-0.4-0.1-0.5c0-0.2-0.1-0.4-0.2-0.6c-0.1-0.2-0.1-0.3-0.2-0.4
	c0-0.1-0.1-0.2-0.2-0.3c-0.1-0.1-0.1-0.2-0.2-0.3c0-0.1-0.1-0.1-0.1-0.2c0,0-0.1,0-0.1-0.1c0,0-0.1,0-0.1-0.1l0.1,0.1
	c0,0,0,0.1,0.1,0.1c0,0,0,0.1,0,0.1c0,0,0.1,0,0.1,0.1c0,0,0.1,0.1,0.1,0.1c0,0,0,0.1,0.1,0.2c0,0.1,0.1,0.4,0.2,0.8
	c0,0.2,0.1,0.4,0.1,0.6c0,0.2,0.1,0.4,0.1,0.6c0,0.2,0,0.4,0,0.6c0,0.2,0.1,0.4,0.1,0.7v7c0,0.1,0,0.3,0,0.4c0,0.1,0.1,0.2,0.1,0.4
	c0,0.3,0,0.5,0,0.8c0,0.2,0.1,0.4,0.1,0.7c0,0.2,0.1,0.4,0.1,0.7c0,0.2,0.1,0.4,0.1,0.6c0.1,0.2,0.1,0.4,0.2,0.6
	c0,0.1,0.1,0.3,0.2,0.5c0.1,0.2,0.1,0.3,0.2,0.4c0,0.1,0.1,0.2,0.2,0.3l0.1,0.1c0,0,0.1,0.1,0.1,0.1c0,0,0,0,0.1,0.1L194.5,86
	L194.5,86z"/>
<ellipse class="st0" cx="210.9" cy="67" rx="3" ry="3"/>
<ellipse class="st0" cx="19.1" cy="67" rx="3" ry="3"/>
</svg>
